<?xml version="1.0" encoding="UTF-8" standalone="no"?>
<!-- Generator: Adobe Illustrator 27.5.0, SVG Export Plug-In . SVG Version: 6.00 Build 0)  -->

<svg
   version="1.1"
   x="0px"
   y="0px"
   viewBox="0 0 750 500"
   style="enable-background:new 0 0 750 500;"
   xml:space="preserve"
   id="svg89"
   sodipodi:docname="login-decorative.svg"
   inkscape:version="1.4 (86a8ad7, 2024-10-11)"
   xmlns:inkscape="http://www.inkscape.org/namespaces/inkscape"
   xmlns:sodipodi="http://sodipodi.sourceforge.net/DTD/sodipodi-0.dtd"
   xmlns="http://www.w3.org/2000/svg"
   xmlns:svg="http://www.w3.org/2000/svg"><defs
   id="defs89" /><sodipodi:namedview
   id="namedview89"
   pagecolor="#ffffff"
   bordercolor="#000000"
   borderopacity="0.25"
   inkscape:showpageshadow="2"
   inkscape:pageopacity="0.0"
   inkscape:pagecheckerboard="0"
   inkscape:deskcolor="#d1d1d1"
   inkscape:zoom="1.1412703"
   inkscape:cx="282.14174"
   inkscape:cy="178.31007"
   inkscape:window-width="1920"
   inkscape:window-height="1009"
   inkscape:window-x="-8"
   inkscape:window-y="-8"
   inkscape:window-maximized="1"
   inkscape:current-layer="OBJECTS" />

<g
   id="OBJECTS">
	
	
	<g
   id="g65"
   transform="matrix(1.5737569,0,0,1.4720583,-405.19417,67.293051)">
		<g
   id="g44">
			<rect
   x="416.91599"
   y="32.487999"
   style="fill:#e0e1dd;fill-opacity:0.7"
   width="68.474998"
   height="94.686996"
   id="rect43" />
			<rect
   x="422.56"
   y="40.292999"
   style="fill:#ffffff"
   width="57.187"
   height="79.078003"
   id="rect44" />
		</g>
		<path
   style="fill:#1b267b;fill-opacity:1"
   d="m 492.665,158.231 c 0,0 -13.486,-58.96 -11.652,-65.538 1.771,-6.353 61.46,-6.095 65.645,-2.661 4.433,3.638 -10.009,68.199 -10.009,68.199 z"
   id="path44" />
		<rect
   x="416.75699"
   y="121.974"
   style="fill:#8794b4;fill-opacity:0.9"
   width="190.696"
   height="4.7639999"
   id="rect45" />
		<polygon
   style="fill:#1b263b;fill-opacity:1"
   points="425.444,126.737 416.757,126.737 390.911,224.04 394.168,224.04 "
   id="polygon45" />
		<polygon
   style="fill:#1b263b;fill-opacity:1"
   points="598.912,126.737 607.6,126.737 633.446,224.04 630.188,224.04 "
   id="polygon46" />
		<path
   style="fill:#e1e3d5;fill-opacity:1"
   d="m 496.033,126.737 c 0,0 -3.584,14.986 -4.887,21.176 -1.303,6.19 -3.095,13.357 15.149,13.032 18.244,-0.326 27.041,1.955 30.624,-2.443 3.584,-4.398 -7.819,-31.765 -7.819,-31.765 z"
   id="path46" />
		<path
   style="fill:#0d1b2a;fill-opacity:1"
   d="m 460.143,185.868 c 0,0 -8.418,11.674 -12.11,16.235 -3.692,4.561 -4.561,6.733 -3.91,8.253 0.652,1.52 4.996,1.846 8.688,0 3.692,-1.846 3.692,-6.733 8.253,-8.688 4.561,-1.955 5.158,-11.24 5.158,-11.24 0,0 -4.286,-2.007 -6.079,-4.56 z"
   id="path47" />
		<path
   style="fill:#1b263b;fill-opacity:1"
   d="m 536.649,177.561 h -43.984 c -2.938,0 -5.32,-2.382 -5.32,-5.32 v -8.69 c 0,-2.938 2.382,-5.32 5.32,-5.32 h 43.984 c 2.938,0 5.32,2.382 5.32,5.32 v 8.69 c 0,2.938 -2.382,5.32 -5.32,5.32 z"
   id="path48" />
		<rect
   x="482.784"
   y="143.995"
   style="fill:#898989"
   width="4.5609999"
   height="25.965"
   id="rect48" />
		<path
   style="fill:#e1e3d5;fill-opacity:1"
   d="m 500.431,212.421 c 0,0 4.398,2.932 8.308,0 0,0 -0.489,-25.086 0,-33.394 0.489,-8.308 -0.652,-20.199 -1.955,-23.946 -1.303,-3.747 -9.122,-6.353 -14.661,0 -5.538,6.353 -0.163,27.366 1.14,32.416 1.303,5.05 7.168,24.924 7.168,24.924 z"
   id="path49" />
		<path
   style="fill:#020d32"
   d="m 487.404,143.995 h -5.331 c -0.987,0 -1.787,-0.8 -1.787,-1.787 v 0 c 0,-0.987 0.8,-1.787 1.787,-1.787 h 5.331 c 0.987,0 1.787,0.8 1.787,1.787 v 0 c 0,0.987 -0.8,1.787 -1.787,1.787 z"
   id="path50" />
		<rect
   x="542.09698"
   y="143.995"
   style="fill:#898989"
   width="4.5609999"
   height="25.965"
   id="rect50" />
		<path
   style="fill:#020d32"
   d="m 546.717,143.995 h -5.331 c -0.987,0 -1.787,-0.8 -1.787,-1.787 v 0 c 0,-0.987 0.8,-1.787 1.787,-1.787 h 5.331 c 0.987,0 1.787,0.8 1.787,1.787 v 0 c 0,0.987 -0.8,1.787 -1.787,1.787 z"
   id="path51" />
		<path
   style="fill:#ffc7ae"
   d="m 497.667,45.12 c 0,0 1.151,11.565 1.39,14.172 0.239,2.606 8.752,11.729 13.048,11.566 4.296,-0.163 9.671,-7.819 10.974,-11.729 1.303,-3.91 1.466,-13.032 1.303,-18.407 -0.163,-5.376 -5.822,-11.403 -12.278,-11.729 -6.455,-0.326 -13.785,2.281 -14.437,16.127 z"
   id="path52" />
		<path
   style="fill:#0d1b2a;fill-opacity:1"
   d="m 517.215,40.722 c 0,0 -2.769,7.005 -8.308,9.937 -5.539,2.932 -12.38,9.122 -8.796,19.385 0,0 -6.842,-3.584 -7.982,-16.127 -1.14,-12.543 3.421,-23.783 14.172,-25.9 5.804,-1.466 11.891,1.629 11.891,1.629 0,0 6.027,-0.489 8.959,7.493 2.932,7.982 2.068,25.243 -5.808,25.572 0,0 2.061,-5.21 1.735,-9.771 -0.325,-4.562 -4.234,-6.517 -5.863,-12.218 z"
   id="path53" />
		<path
   style="fill:#ffc7ae"
   d="m 512.105,70.857 c -1.128,0.043 -2.548,-0.564 -4.031,-1.515 l -0.007,0.001 v 7.053 c 0,0 1.698,2.444 4.038,2.281 2.341,-0.163 4.621,-2.769 4.621,-2.769 v -7.444 h -0.003 c -1.527,1.378 -3.136,2.337 -4.618,2.393 z"
   id="path54" />
		<path
   style="fill:#0d1b2a;fill-opacity:1"
   d="m 535.31,85.029 c -4.066,-2.606 -18.876,-8.633 -18.876,-8.633 h -0.183 c -0.787,0.762 -2.449,2.162 -4.147,2.281 -2.341,0.163 -4.038,-2.281 -4.038,-2.281 0,0 -14.809,6.027 -18.876,8.633 -4.066,2.606 -15.795,27.562 -14.166,32.253 1.629,4.691 15.361,4.691 15.361,4.691 h 21.718 0.292 21.718 c 0,0 13.733,0 15.362,-4.691 1.63,-4.691 -10.098,-29.647 -14.165,-32.253 z"
   id="path55" />
		<path
   style="fill:#e0e1dd;fill-opacity:1"
   d="m 512.105,78.676 c 0,0 -0.428,5.701 -5.315,4.398 -2.769,-0.706 -4.177,-4.398 -4.177,-4.398 l 5.454,-2.281 c 0,0.001 1.588,2.281 4.038,2.281 z"
   id="path56" />
		<path
   style="fill:#e0e1dd;fill-opacity:1"
   d="m 512.396,78.676 c 0,0 0.429,5.701 5.315,4.398 2.769,-0.706 4.178,-4.398 4.178,-4.398 l -5.455,-2.281 c 10e-4,0.001 -1.588,2.281 -4.038,2.281 z"
   id="path57" />
		<polygon
   style="fill:#ffffff"
   points="534.115,121.974 491.958,121.974 487.345,95.78 537.972,95.78 "
   id="polygon57" />
		<polygon
   style="fill:#beaa8c;fill-opacity:1"
   points="461.667,112.233 446.138,112.233 447.767,121.974 460.143,121.974 "
   id="polygon58" />
		<rect
   x="443.09799"
   y="107.78"
   style="fill:#bebe89;fill-opacity:1"
   width="21.611"
   height="4.4520001"
   id="rect58" />
		<path
   style="fill:#4b785a;fill-opacity:1"
   d="m 453.306,84.215 c 0,0 -1.52,4.67 2.498,4.67 4.018,0 2.824,-6.624 7.819,-4.018 4.996,2.606 -4.127,21.394 -7.71,22.914 h -5.973 c 0,0 -7.276,-4.127 -6.842,-14.226 0.434,-10.1 1.629,-21.285 6.516,-23.511 4.887,-2.226 6.407,0.163 6.081,4.072 -0.326,3.909 -2.389,10.099 -2.389,10.099 z"
   id="path58" />
		<g
   id="g59">
			<path
   style="fill:#486853;fill-opacity:1"
   d="m 450.482,75.527 c -0.177,1.367 -0.354,2.727 -0.456,4.097 -0.141,1.363 -0.246,2.729 -0.306,4.096 -0.124,2.732 -0.172,5.462 -0.041,8.185 0.14,2.722 0.475,5.422 0.975,8.1 0.332,1.316 0.59,2.662 1.072,3.938 0.345,1.332 0.973,2.545 1.47,3.838 -0.695,-1.182 -1.423,-2.374 -1.93,-3.666 -0.584,-1.265 -0.931,-2.61 -1.362,-3.934 -0.69,-2.693 -1.06,-5.458 -1.225,-8.227 -0.109,-2.772 -0.033,-5.547 0.276,-8.295 0.309,-2.747 0.759,-5.481 1.527,-8.132 z"
   id="path59" />
		</g>
		<polygon
   style="fill:#e0e1dd;fill-opacity:1"
   points="576.216,103.389 562.649,103.389 564.372,121.974 574.493,121.974 "
   id="polygon59" />
		<rect
   x="561.034"
   y="100.59"
   style="fill:#e0e1dd;fill-opacity:1"
   width="16.797001"
   height="2.799"
   id="rect59" />
		<rect
   x="564.69501"
   y="97.898003"
   style="fill:#e0e1dd;fill-opacity:1"
   width="9.0450001"
   height="2.6919999"
   id="rect60" />
		<rect
   x="562.43402"
   y="108.396"
   style="fill:#ceb793"
   width="13.782"
   height="6.9450002"
   id="rect61" />
		<path
   style="fill:#e0d7c1;fill-opacity:1"
   d="m 530.284,140.909 c 0,0 -18.342,-4.724 -28.17,-4.561 -9.828,0.163 -17.158,7.819 -24.163,20.199 -7.004,12.38 -17.808,29.321 -17.808,29.321 0,0 2.985,3.91 6.08,4.561 0,0 5.376,-6.027 12.543,-11.077 7.167,-5.05 15.801,-15.964 20.525,-22.48 0,0 8.796,5.697 19.059,6.514 10.262,0.816 15.475,0.491 18.57,-4.885 3.094,-5.375 -1.093,-16.278 -6.636,-17.592 z"
   id="path61" />
		<path
   style="fill:#c1ac8e"
   d="m 499.29,156.873 c 0.233,-1.144 0.727,-2.13 1.283,-3.079 0.583,-0.932 1.229,-1.826 2.138,-2.561 -0.231,1.146 -0.725,2.132 -1.283,3.079 -0.584,0.931 -1.23,1.826 -2.138,2.561 z"
   id="path62" />
		<polygon
   style="fill:#394154"
   points="514.5,221.217 500.545,228.819 532.907,228.819 516.183,221.217 "
   id="polygon62" />
		<rect
   x="510.616"
   y="177.561"
   style="fill:#1b267b;fill-opacity:1"
   width="9.8030005"
   height="6.9499998"
   id="rect62" />
		<rect
   x="512.70801"
   y="184.511"
   style="fill:#1b267b;fill-opacity:1"
   width="5.4299998"
   height="5.4299998"
   id="rect63" />
		<rect
   x="514.5"
   y="189.94099"
   style="fill:#898989"
   width="1.683"
   height="31.275999"
   id="rect64" />
		<path
   style="fill:#0d1b2a;fill-opacity:1"
   d="m 500.431,212.421 c 0,0 0.38,4.235 0,6.95 -0.38,2.715 -6.244,7.602 -5.81,11.403 0.434,3.801 11.62,2.063 14.878,0.543 3.258,-1.52 -0.76,-18.896 -0.76,-18.896 0,0 -2.607,2.714 -8.308,0 z"
   id="path64" />
		<polygon
   style="fill:#ede9e4"
   points="491.558,119.702 491.101,117.103 526.174,95.78 530.301,95.78 "
   id="polygon64" />
		<polygon
   style="fill:#ede9e4"
   points="493.812,121.974 491.958,121.974 534.21,95.78 535.948,95.78 "
   id="polygon65" />
	</g>
	
</g>

</svg>
