<?xml version="1.0" encoding="UTF-8" standalone="no"?>
<!-- Generator: Adobe Illustrator 27.5.0, SVG Export Plug-In . SVG Version: 6.00 Build 0)  -->

<svg
   version="1.1"
   id="Layer_1"
   x="0px"
   y="0px"
   viewBox="0 0 3484.545 2000"
   style="enable-background:new 0 0 3484.545 2000;"
   xml:space="preserve"
   sodipodi:docname="login-decorative2.svg"
   inkscape:version="1.4 (86a8ad7, 2024-10-11)"
   xmlns:inkscape="http://www.inkscape.org/namespaces/inkscape"
   xmlns:sodipodi="http://sodipodi.sourceforge.net/DTD/sodipodi-0.dtd"
   xmlns="http://www.w3.org/2000/svg"
   xmlns:svg="http://www.w3.org/2000/svg"><defs
   id="defs97" /><sodipodi:namedview
   id="namedview97"
   pagecolor="#ffffff"
   bordercolor="#000000"
   borderopacity="0.25"
   inkscape:showpageshadow="2"
   inkscape:pageopacity="0.0"
   inkscape:pagecheckerboard="0"
   inkscape:deskcolor="#d1d1d1"
   inkscape:zoom="0.28531759"
   inkscape:cx="1563.1704"
   inkscape:cy="1091.7659"
   inkscape:window-width="1920"
   inkscape:window-height="1009"
   inkscape:window-x="-8"
   inkscape:window-y="-8"
   inkscape:window-maximized="1"
   inkscape:current-layer="g96" />
<g
   id="g97">
	
	<g
   id="g96">
		
		
		
		
		<g
   id="g49">
			<path
   style="fill:#F48C7F;"
   d="M1932.696,1129.85c19.852-5.72,20.384-2.18,22.903-2.982c2.977-0.949,26.991-33.474,26.991-33.474     s71.475-95.34,75.135-100.639l22.542-123.368l67.715-0.536c0,0-28.288,133.228-31.054,139.824s-116.035,123.045-125.633,133.643     c0,0-6.203,17.212-10.478,27.859c-4.275,10.648-13.427,18.432-15.126,21.204c-0.251,0.41-6.501,9.269-17.406,17.897     c-9.398,7.437-4.431-4.14-4.431-4.14s14.545-17.064,12.841-18.08c-1.313-0.783-8.641,9.046-18.94,17.387     c-2.647,2.145-5.269,4.252-7.697,6.167c-6.37,5.026-11.768,2.353-6.074-4.023c2.012-2.252,5.454-5.905,8.325-8.134     c3.1-2.408,5.045-5.672,7.292-8.115c4.46-4.85,7.781-8.324,7.456-8.415c-0.423-0.116-0.303-1.753-3.196,0.431     c-3.477,2.627-9.428,9.919-14.89,13.368c-3.098,1.954-9.275,6.448-9.275,6.448s-10.821,4.967-11.397,4.42     c-3.115-2.962,3.079-8.478,7.702-10.564c2.086-2.866,8.742-7.401,8.742-7.401s11.033-12.313,9.098-14.029     c-0.823-0.732-8.605,5.943-17.416,11.22c-8.18,4.899-17.406,8.468-18.815,6.944c-2.386-2.584,6.002-9.024,6.002-9.024     s6.156-4.181,8.076-5.732c2.25-1.819,8.505-7.807,8.505-7.807s20.673-21.93,18.713-23.415c-1.959-1.487-8.37-3.495-10.184-2.615     c-1.811,0.879-4.085,4.273-5.898,5.152c-1.812,0.88-5.112,0.442-6.621-1.749c-1.509-2.192,5.229-9.873,5.229-9.873     S1926.964,1131.501,1932.696,1129.85z"
   id="path33" />
			<path
   style="fill:#F7A491;"
   d="M2045.125,1748.751c0,0,2.409,42.564,2.424,42.652c0.885,5.403,4.373,18.755,4.373,23.668     c0,18.456-82.115-15.666-63.712-23.846c1.666-0.74,10.392-6.339,10.939-12.62c0.845-9.678,2.985-29.258,2.985-29.258     L2045.125,1748.751z"
   id="path34" />
			<path
   style="fill:#184655"
   d="m 1988.413,1791.051 c 0,0 19.279,5.646 29.154,7.056 9.874,1.412 22.891,-10.472 29.876,-7.262 7.687,3.533 6.91,38.325 6.91,38.325 0,0 -102.911,6.065 -131.981,-3.301 -11.519,-3.71 26.628,-21.669 66.041,-34.818 z"
   id="path35"
   sodipodi:nodetypes="ccsccc" />
			<path
   style="fill:#F7A491;"
   d="M2226.04,1752.835c0,0,2.409,42.565,2.423,42.653c0.885,5.404,4.374,18.756,4.374,23.668     c0,18.457-82.115-15.666-63.713-23.845c1.667-0.741,12.98-10.519,13.528-16.799c0.844-9.679,0.397-25.078,0.397-25.078     L2226.04,1752.835z"
   id="path36" />
			<path
   style="fill:#1a3648;fill-opacity:1"
   d="M2169.328,1795.135c0,0,19.278,5.646,29.153,7.057c9.875,1.412,22.892-10.473,29.876-7.264     c7.688,3.535,7.995,35.338,7.995,35.338s-110.02,7.975-135.887,0.488C2088.841,1827.39,2129.915,1808.285,2169.328,1795.135z"
   id="path37" />
			<path
   style="fill:#415a77;fill-opacity:0.89803922"
   d="M2095.911,1138.395l-34.717,14.976l-73.028,348.747l2.96,261.445l58.541,1.361     c0,0,27.229-228.697,27.229-246.42c0-17.724,126.121-310.157,126.121-310.157L2095.911,1138.395z"
   id="path38" />
			<path
   style="fill:#415a77;fill-opacity:1"
   d="M2122.706,1157.584c0,0,25.578,268.7,25.578,313.992c0,45.295,20.737,298.794,20.737,298.794     l58.681-0.34c0,0,4.234-77.269,10.525-190.943c0.985-17.803-1.269-53.725,0-72.156c9.128-132.562,27.183-257.353,18.56-306.818     c-1.387-7.961-3.997-28.782-9.075-34.036C2209.284,1126.321,2122.706,1157.584,2122.706,1157.584z"
   id="path39" />
			<path
   style="fill:#1b263b;fill-opacity:1"
   d="M2051.127,945.528l71.008-4.756c0,0,3.504-63.472,3.504-93.748     c0-36.732,11.196-90.889,6.819-89.87c-12.283,2.858-33.49,14.166-43.339,27.881     C2055.039,832.494,2051.127,945.528,2051.127,945.528z"
   id="path40" />
			<path
   style="fill:#1b263b;fill-opacity:0.89999998"
   d="M2219.357,755.748c0,0,40.491,5.63,51.149,13.456c12.004,8.814,25.323,28.537,25.323,28.537     s-49.714,235-49.802,274.544c-0.069,30.594,10.764,105.713,10.764,105.713s-150.233,9.483-207.132-12.978     c0,0,17.967-89.341,17.967-112.799s21.492-236.782,26.383-251.68c4.438-13.517,12.549-37.807,40-43.796     C2161.461,750.757,2219.357,755.748,2219.357,755.748z"
   id="path41" />
			<path
   style="fill:#F7A491;"
   d="M2208.301,692.478l10.023,65.622c0,0-36.603,78.136-58.454,71.359     c-18.334-5.685-7.054-74.821-7.054-74.821s9.993-37.128,6.996-55.707C2156.815,680.351,2208.301,692.478,2208.301,692.478z"
   id="path42" />
			<path
   style="fill:#F47458;"
   d="M2159.812,698.931c-2.997-18.579,48.489-6.453,48.489-6.453l0.832,5.443     c-1.506,3.641-3.349,6.757-5.584,9.146c-11.5,12.295-29.477,19.679-45.018,20.237     C2160.085,717.286,2161.041,706.549,2159.812,698.931z"
   id="path43" />
			<g
   id="g46">
				<path
   style="fill:#F7A491;"
   d="M2216.749,599.64c1.454-0.525,11.664,74.74-7.71,95.449      c-19.374,20.709-57.12,27.487-70.659,11.177c-14.975-18.041-14.223-98.934,15.898-120.236      C2184.399,564.726,2216.749,599.64,2216.749,599.64z"
   id="path44" />
				<path
   style="fill:#1b263b;fill-opacity:1"
   d="m 2165.744,545.768 c 23.282,4.715 38.363,18.849 43.903,24.872 10.571,1.24 24.94,7.044 39.778,31.447 18.243,30.006 4.77,63.249 -16.467,79.56 -21.237,16.311 -20.997,35.246 -20.997,35.246 l -3.302,-9.84 c -2.478,-7.383 -3.489,-15.211 -2.66,-22.954 0.497,-4.646 1.499,-9.67 3.435,-13.8 5.108,-10.893 -10.972,-18.13 -15.48,-27.193 -3.472,-6.978 -3.641,-22.942 -9.111,-34.477 l -6.531,-8.805 c 0,0 -15.071,-11.65 -29.814,-8.362 -14.746,3.287 -12.624,-51.745 17.246,-45.694 z"
   id="path45"
   sodipodi:nodetypes="cccsccscccccc" />
				<path
   style="fill:#F7A491;"
   d="M2194.944,656.5c-0.153,9.183,4.048,16.7,9.386,16.791c5.337,0.09,9.789-7.281,9.943-16.464      c0.153-9.182-4.049-16.7-9.387-16.791C2199.548,639.947,2195.097,647.318,2194.944,656.5z"
   id="path46" />
			</g>
			<path
   style="fill:#13375B;"
   d="M2116.098,994.79l-0.971,5.603c-0.498,2.883-3.24,4.815-6.124,4.316l-116.122-20.112     c-2.881-0.499-4.815-3.241-4.315-6.124l0.971-5.604c0.499-2.883,3.241-4.815,6.123-4.316l116.122,20.111     C2114.666,989.165,2116.598,991.906,2116.098,994.79z"
   id="path47" />
			<path
   style="fill:#F7A491;"
   d="M2280.716,786.008c-13.624-0.395-25.675,89.47-17.038,98.335     c8.637,8.865,10.285,119.548,10.285,119.548l-128.526-3.195l-0.017,0.044c-2.506-1.681-29.432-19.764-33.282-23.717     c-4.04-4.146-23.661-2.073-28.854,3.627c-5.194,5.702,11.542,1.037,16.159,4.147c4.616,3.11-3.464,10.884-3.464,10.884     s-32.572,4.727-38.919-2.012c-6.349-6.738-23.312-18.143-25.62-11.405c-1.191,3.477,7.558,14.011,12.485,18.432     c-6.15-4.603-13.513-9.493-16.04-8.643c-4.617,1.555-2.693,7.429-0.192,9.156c2.5,1.727,28.358,21.469,32.397,22.852     c3.946,1.35,64.089,2.835,74.479,5.138c0,0,169.489,38.594,179.125,36.186c8.453-2.113,16.908-56.362,16.908-97.917     C2330.601,925.913,2323.29,787.241,2280.716,786.008z"
   id="path48" />
			<path
   style="fill:#1b263b;fill-opacity:1"
   d="m 2263.044,765.507 c 0,0 23.709,5.46 48.2,32.982 22.274,25.028 36.306,165.188 36.306,165.188 l -76.907,12.434 -6.142,-67.799 -20.549,-31.013 z"
   id="path49"
   sodipodi:nodetypes="ccccccc" />
		</g>
		<g
   id="g94">
			<g
   id="g70">
				<path
   style="fill:#20110C;"
   d="M1275.336,630.758c0,0-62.914-16.161-70.418,50.794c-7.503,66.955,26.551,77.344,8.081,109.667      c-18.471,32.323-39.249,8.081-43.29,99.855c-4.04,91.774,206.437,203.251,261.867,148.774      c180.228-177.133-33.639-249.288-24.981-303.544c8.658-54.257-16.072-100.314-48.973-119.939      C1324.723,596.741,1282.84,596.704,1275.336,630.758z"
   id="path50" />
				<path
   style="fill:#FF7446;"
   d="M1489.016,1768.976c0,0-1.141,17.457,7.754,27.38c8.894,9.924,41.983,15.186,46.429,26.476      c4.446,11.293-33.34,11.988-46.041,8.533c-12.701-3.457-45.698-6.182-53.959-6.634s10.622-55.352,12.316-56.87      C1457.209,1766.341,1489.016,1768.976,1489.016,1768.976z"
   id="path51" />
				<path
   style="fill:#FF7446;"
   d="M1295.759,1758.163c0,0,8.195,36.859,7.417,51.088c-0.778,14.228-18.096,36.3-31.407,35.571      c-13.311-0.727-24.333-9.616-21.085-26.931c3.249-17.317,13.325-58.483,13.325-58.483L1295.759,1758.163z"
   id="path52" />
				<path
   style="fill:#1b263b;fill-opacity:1"
   d="m 1197.063,1135.789 c 0,0 -8.493,-280.77 4.838,-294.1 5.34,-5.34 48.974,-19.745 78.795,-24.648 44.625,-7.337 79.582,-4.195 79.582,-4.195 0,0 45.474,54.497 45.474,74.722 0,20.225 2.904,250.388 2.904,250.388 35.198,12.972 89.664,246.128 93.745,306.198 4.082,60.069 -4.749,339.481 -4.749,339.481 l -51.255,-5.564 c -27.985,-43.882 -40.588,-274.975 -48.765,-303.738 -11.285,-39.696 -64.278,-161.25 -64.278,-161.25 l -27.298,-11.904 c 0,0 6.32,183.224 4.011,225.451 -2.308,42.226 0.321,246.768 0.321,246.768 l -51.406,-2.811 c -40.248,-72.174 -68.998,-405.201 -68.045,-422.642 0.954,-17.442 -16.818,-46.035 -20.534,-95.957 -2.932,-39.396 26.66,-116.199 26.66,-116.199 z"
   id="path53"
   sodipodi:nodetypes="csscsccccscccccccc" />
				
					<rect
   x="1287.027"
   y="1128.572"
   transform="matrix(-1 -1.224647e-16 1.224647e-16 -1 2665.2346 2266.7979)"
   style="fill:#FFFFFF;"
   width="91.181"
   height="9.655"
   id="rect53" />
				<path
   style="fill:#271798;"
   d="M1324.374,1142.103h17.57c3.235,0,5.857-2.622,5.857-5.857v-4.21      c0-3.235-2.623-5.857-5.857-5.857h-17.57c-3.234,0-5.857,2.622-5.857,5.857v4.21      C1318.517,1139.48,1321.139,1142.103,1324.374,1142.103z"
   id="path54" />
				<path
   style="opacity:0.38;fill:#001C41;"
   d="M1197.063,1135.789c0,0-7.542-249.339,2.746-289.228      c13.348-8.992,55.804-24.898,66.203-25.718c-1.895,20.501,16.707,135.811,35.793,195.023      c12.05,37.385,10.267,83.239,5.719,118.874h0.02c-2.842,22.174-7.209,43.57-12.182,62.271      c-1.097,0.334-29.401,15.521-78.576,15.524c-2.103-0.115-20.522-1.344-41.57-4.623      C1182.99,1172.315,1197.063,1135.789,1197.063,1135.789z"
   id="path55" />
				<path
   style="opacity:0.38;fill:#001C41;"
   d="M1348.173,1199.801c-1.082-3.55,7.282-44.093,9.894-65.062h0.056      c17.288-140.413,1.722-319.234,1.484-321.948c0.009,0.001,0.022,0.001,0.031,0.002c1.048,1.028,4.013,4.374,7.967,9.166      c12.205,15.553,35.596,47.088,37.947,63.155c0.041,0.481,0.068,0.952,0.068,1.405c0,0.135,0,0.28,0,0.433      c0.005,2.534,0.043,7.582,0.109,14.553c0.01,1.356,0.068,2.776,0.162,4.247c0.581,59.211,2.764,232.202,2.764,232.202      c11.369,4.191,24.747,31.354,37.789,68.233C1404.09,1208.84,1351.165,1209.615,1348.173,1199.801z"
   id="path56" />
				<path
   style="fill:#415a77;fill-opacity:0.89999998"
   d="M1147.287,1172.432c-0.079,35.208,94.692,37.693,139.74,17.468l-4.903-152.61l-15.456-217.365      c0,0-56.938,11.294-76.321,24.473c0,0-6.286,225.988-11.802,271.955C1173.029,1162.319,1147.324,1156.382,1147.287,1172.432z"
   id="path57" />
				<path
   style="fill:#415a77;fill-opacity:0.89803922"
   d="M1410.361,825.169c0,0,22.237,179.951,22.237,226.837c0,46.885,8.878,127.781,8.878,127.781      s-47.962,18.387-81.439,10.113c0,0,31.795-180.52,31.795-192.306c0-11.786-32.227-184.872-32.227-184.872      S1390.207,814.362,1410.361,825.169z"
   id="path58" />
				<polygon
   style="fill:#162f7f;fill-opacity:1"
   points="1440.106,1781.5 1502.3,1785.546 1502.375,1769.458 1437.622,1765.918     "
   id="polygon58" />
				<polygon
   style="fill:#162f7f;fill-opacity:1"
   points="1252.007,1771.136 1313.695,1775.18 1314.047,1759.163 1249.294,1755.622     "
   id="polygon59" />
				<path
   style="fill:#001653;"
   d="M1446.7,1792.937c4.906,6.199,20.909,18.893,67.749,13.281c12.195,4.92,25.99,9.605,28.75,16.613      c4.446,11.293-33.34,11.988-46.041,8.532c-12.701-3.456-45.698-6.181-53.959-6.633      C1438.696,1824.484,1442.254,1808.071,1446.7,1792.937z"
   id="path59" />
				<path
   style="fill:#001653;"
   d="M1303.176,1809.251c-0.778,14.228-18.096,36.3-31.407,35.571      c-13.311-0.727-24.333-9.616-21.085-26.932c1.093-5.827,2.96-14.358,4.956-23.112c1.697,10.803,6.716,29.188,20.922,22.826      c15.375-6.884,22.17-22.863,24.864-29.094C1302.619,1796.495,1303.448,1804.263,1303.176,1809.251z"
   id="path60" />
				<path
   style="opacity:0.18;fill:#001653;"
   d="M1436.003,1120.853c-17.995-0.914-40.875-2.069-63.41-3.181      c1.341-7.802,2.715-15.829,4.083-23.861l57.621,3.058C1434.797,1104.838,1435.385,1112.988,1436.003,1120.853z"
   id="path61" />
				<path
   style="opacity:0.18;fill:#001653;"
   d="M1284.58,1113.722c-0.108-0.001-0.216-0.002-0.31-0.002      c-13.98,0-68.393,14.851-88.157,14.851c-7.563,0-13.835-2.174-18.698-4.86c0.031-0.164,0.061-0.34,0.091-0.507      c0.397-2.149,0.748-4.424,1.039-6.852c0.141-1.177,0.283-2.477,0.425-3.883c0.713-6.808,1.24-14.507,1.717-21.767h103.153      L1284.58,1113.722z"
   id="path62" />
				<path
   style="fill:#415a77;fill-opacity:0.89803922"
   d="m 1409.968,825.562 c 0,0 16.825,3.539 40.573,83.107 23.748,79.569 7.968,181.792 -8.419,192.404 -16.388,10.612 -175.54,6.683 -175.54,6.683 l -0.616,-57.327 c 0,0 120.486,-18.827 132.413,-33.456 2.93,-3.594 -2.1,-18.992 -1.052,-36.506 3.219,-53.775 12.641,-154.905 12.641,-154.905 z"
   id="path63"
   sodipodi:nodetypes="cscccscc" />
				<path
   style="fill:#DC7A63;"
   d="M1404.075,1008.523c0,0,16.467-11.339,22.652-18.924c6.184-7.586,18.562-17.789,19.112-12.379      c0.551,5.41-5.116,13.202-5.116,13.202s22.499-15.717,25.48-13.287c2.98,2.429,5.936,19.271,3.853,37.867      c-2.083,18.596-54.826,32.132-54.826,32.132L1404.075,1008.523z"
   id="path64" />
				<path
   style="fill:#415a77;fill-opacity:0.898039"
   d="m 1193.701,1116.661 c 57.385,9.575 178.493,-33.069 227.604,-48.501 l -18.409,-63.714 c 0,0 -144.641,40.016 -163.593,31.511 -9.368,-4.204 -33.376,-48.751 -42.181,-94.059 -9.008,-46.349 -6.775,-97.5 -6.775,-97.5 0,0 -41.551,54.356 -29.842,169.434 8.936,87.81 7.945,98.616 33.196,102.829 z"
   id="path65"
   sodipodi:nodetypes="cccscccc" />
				<path
   style="fill:#DC7A63;"
   d="M1208.221,985.903c0,0,13.547,11.464,24.112,20.077c10.566,8.614,27.124,31.76,27.124,31.76      s-19.649,4.666-26.534,5.366c-6.885,0.701-29.533-11.9-37.402-11.1c-7.868,0.8-5.577-10.861,4.068-8.861      c9.644,2,19.188,3.017,19.188,3.017s-22.627-14.84-33.193-23.454c-10.566-8.614-2.014-15.13,6.631-8.083      c8.644,7.048,18.017,11.04,18.017,11.04s-30.443-25.721-26.025-31.139C1188.624,969.108,1208.221,985.903,1208.221,985.903z"
   id="path66" />
				<path
   style="fill:#F26E5A;"
   d="M1332.852,749.939c0,0,3.244,45.475,7.468,55.4c1.207,2.836,3.257,4.937,5.569,6.491      c11.965,8.041-9.392,109.281-20.276,107.045c-11.738-2.412-40.775-65.201-50.135-85.573c-2.77-6.028-0.273-13.304,5.767-16.047      c0.025-0.012,0.049-0.022,0.073-0.033c10.097-4.48,2.653-87.838,2.653-87.838L1332.852,749.939z"
   id="path67" />
				<path
   style="opacity:0.65;fill:#F26E5A;"
   d="M1290.671,726.099c0,0-2.41,1.349-2.138,4.853c0.543,6.999,4.194,15.72,7.333,22      c14.512,29.02,35.462,43.045,49.893,45.031c-3.591-14.675-6.205-51.329-6.205-51.329L1290.671,726.099z"
   id="path68" />
				<path
   style="fill:#FC7E72;"
   d="M1282.378,693.631c0,0,7.433-32.842,32.063-42.584c24.629-9.742,47.153-2.418,55.702,29.726      c8.549,32.144-3.819,83.137-18.785,98.789C1336.391,795.214,1284.234,768.98,1282.378,693.631z"
   id="path69" />
				<path
   style="fill:#FC7E72;"
   d="M1289.758,704.018c0,0-12.342-19.125-19.922-8.063c-7.581,11.062-0.863,37.461,13.464,38.842      C1297.627,736.177,1289.758,704.018,1289.758,704.018z"
   id="path70" />
			</g>
			
		</g>
		
	</g>
</g>
</svg>
